<?xml version="1.0" encoding="UTF-8"?><svg id="_レイヤー_1" xmlns="http://www.w3.org/2000/svg" viewBox="0 0 50 50"><defs><style>.cls-1{fill:#ea5514;}</style></defs><path class="cls-1" d="M34.92,11.36l-16.86,12.64c-.82.62-2.15.62-2.98,0h0c-.82-.62-.82-1.62,0-2.23l16.86-12.64c.82-.62,2.15-.62,2.98,0h0c.82.62.82,1.62,0,2.23Z"/><path class="cls-1" d="M31.94,24.01L15.08,11.36c-.82-.62-.82-1.62,0-2.23h0c.82-.62,2.15-.62,2.98,0l16.86,12.64c.82.62.82,1.62,0,2.23h0c-.82.62-2.15.62-2.98,0Z"/><path class="cls-1" d="M17.27,32.69c.2,0,.31.14.31.38v1.06c0,.12,0,.3-.31.3-.16,0-.17-.02-.26-.02-.78,0-.78,2.08-.78,2.51,0,.41,0,2.64.74,2.64.11,0,.11-.02.29-.02.31,0,.31.43.31.55v.8c0,.3-.11.44-.31.44-1.16,0-2.51-.78-2.51-4.44,0-3.42,1.35-4.2,2.51-4.2Z"/><path class="cls-1" d="M20.28,39.53c.34,0,.38.26.38.62v.16c0,.48,0,.96-.49.96h-1.84c-.49,0-.49-.48-.49-.96v-6.6c0-.48,0-.96.49-.96h.41c.49,0,.49.48.49.96v5.17c0,.29,0,.66.25.67.43,0,.63-.02.8-.02Z"/><path class="cls-1" d="M24.87,40.67c0,.55-.25.6-.72.6h-.43c-.51,0-.25-1.8-.58-1.8h-.65c-.33,0-.14,1.8-.63,1.8h-.38c-.42,0-.68-.05-.68-.6,0-.72.2-1.36.83-6.96.06-.6.23-.96.55-.96h1.26c.33,0,.49.36.57.96.55,4.92.86,6.24.86,6.96ZM22.5,37.48c0,.19.06.19.32.19s.32,0,.32-.18c0-.05,0-.11,0-.19-.1-1.18-.13-2.63-.31-2.63s-.23,1.44-.31,2.63c0,.07,0,.13,0,.18Z"/><path class="cls-1" d="M28.69,38.84c0,1.49-.11,2.49-1.75,2.49-1.72,0-1.84-1.02-1.84-2.58,0-3.79,0-5.04,0-5.04,0-.48,0-.96.49-.96h.41c.49,0,.49.48.49.96v5.28c0,.36,0,.66.45.66.37,0,.37-.3.37-.66v-5.29c0-.47,0-.95.49-.95h.41c.49,0,.49.48.49.95v5.13Z"/><path class="cls-1" d="M30.67,32.69c.68,0,1.13.18,1.13.52v.92c0,.13-.03.36-.31.36h-.07c-.13,0-.42-.13-.66-.13-.2,0-.35.1-.35.48s.07.56.39.95c.97,1.18,1.17,2.02,1.17,2.99,0,.55,0,1.06-.22,1.52-.27.6-.69.83-.87.9-.22.08-.53.13-.78.13-.6,0-1.19-.17-1.19-.65v-.92c0-.14.08-.29.3-.29s.39.18.86.18c.23,0,.54-.26.54-.64,0-.28,0-.48-.51-1.2-.76-1.09-1.12-1.59-1.12-2.58,0-2.36,1.04-2.54,1.69-2.54Z"/><path class="cls-1" d="M33.6,39.08c.02.26.18.4.34.4.46,0,.62-.02.79-.02.34,0,.45.14.45.5v.84c0,.36-.08.48-.33.48h-2.16c-.49,0-.49-.72-.49-.96v-6.6c0-.48,0-.96.49-.96h2.11c.2,0,.38.12.38.36v1.02c0,.29-.16.3-.37.3-.32,0-.57-.02-.78-.02-.45,0-.45.24-.45.62,0,.78,0,.98.41.98.51,0,.59-.02.78-.02.29,0,.3.42.3.55v.77c0,.36-.17.38-.38.38-.42,0-.68-.02-.85-.02-.26,0-.26.17-.26.56v.84Z"/></svg>