<?xml version="1.0" encoding="utf-8"?>
<!-- Generator: Adobe Illustrator 28.2.0, SVG Export Plug-In . SVG Version: 6.00 Build 0)  -->
<svg version="1.1" id="レイヤー_1" xmlns="http://www.w3.org/2000/svg" xmlns:xlink="http://www.w3.org/1999/xlink" x="0px"
	 y="0px" viewBox="0 0 16 16" style="enable-background:new 0 0 16 16;" xml:space="preserve">
<style type="text/css">
	.st0{fill:#17499D;}
	.st1{fill:#FFFFFF;}
</style>
<rect x="0" y="0" class="st0" width="16.02" height="16.02"/>
<g>
	<path class="st1" d="M7.17,6.76c1.92-0.35,3.44-0.18,3.59,0.46c0.18,0.76-1.62,1.89-4.02,2.53C6.69,9.76,6.64,9.77,6.6,9.78
		c0.92,0.17,2.19,0.12,3.55-0.18c2.57-0.57,4.5-1.84,4.31-2.84c-0.2-1-2.44-1.34-5.01-0.76C8.6,6.19,7.82,6.45,7.17,6.76z"/>
	<path class="st1" d="M8.92,7.77C7,8.12,5.48,7.95,5.33,7.31C5.15,6.55,6.95,5.41,9.35,4.78c0.05-0.01,0.09-0.02,0.14-0.04
		C8.56,4.57,7.29,4.62,5.93,4.92c-2.57,0.57-4.5,1.84-4.31,2.84c0.2,1,2.44,1.34,5.01,0.76C7.49,8.34,8.26,8.07,8.92,7.77z"/>
	<g>
		<path class="st1" d="M2.58,11.07H1.76c-0.04,0-0.06-0.01-0.06-0.05c0-0.03,0.02-0.04,0.06-0.04h0.76c0.13,0,0.18-0.04,0.18-0.1
			v-0.03c0-0.07-0.07-0.1-0.18-0.1H1.98c-0.16,0-0.28-0.06-0.28-0.17V10.5c0-0.09,0.1-0.17,0.28-0.17h0.79
			c0.04,0,0.06,0.01,0.06,0.05s-0.02,0.04-0.06,0.04H2.05c-0.11,0-0.18,0.04-0.18,0.1v0.03c0,0.08,0.07,0.1,0.18,0.1h0.54
			c0.16,0,0.29,0.06,0.29,0.17v0.07C2.87,10.99,2.77,11.07,2.58,11.07z"/>
		<path class="st1" d="M3.18,11.06c-0.06,0-0.08-0.01-0.08-0.03v-0.91c0-0.02,0.02-0.03,0.08-0.03c0.07,0,0.08,0.01,0.08,0.03v0.91
			C3.26,11.05,3.24,11.06,3.18,11.06z"/>
		<path class="st1" d="M4.37,11.07H3.55c-0.04,0-0.06-0.01-0.06-0.05c0-0.03,0.02-0.04,0.06-0.04h0.76c0.13,0,0.18-0.04,0.18-0.1
			v-0.03c0-0.07-0.07-0.1-0.18-0.1H3.77c-0.16,0-0.28-0.06-0.28-0.17V10.5c0-0.09,0.1-0.17,0.28-0.17h0.79
			c0.04,0,0.06,0.01,0.06,0.05s-0.02,0.04-0.06,0.04H3.84c-0.11,0-0.18,0.04-0.18,0.1v0.03c0,0.08,0.07,0.1,0.18,0.1h0.54
			c0.16,0,0.29,0.06,0.29,0.17v0.07C4.66,10.99,4.56,11.07,4.37,11.07z"/>
		<path class="st1" d="M5.73,11.06H5.22c-0.24,0-0.38-0.1-0.38-0.23v-0.29c0-0.13,0.15-0.22,0.38-0.22h0.53
			c0.23,0,0.38,0.09,0.38,0.22v0.03c0,0.02-0.01,0.03-0.08,0.03c-0.07,0-0.08-0.01-0.08-0.02v-0.01c0-0.08-0.09-0.15-0.25-0.15H5.25
			C5.1,10.42,5,10.47,5,10.57v0.25c0,0.1,0.1,0.15,0.26,0.15h0.44c0.19,0,0.26-0.07,0.26-0.15v-0.01c0-0.02,0.01-0.02,0.08-0.02
			c0.07,0,0.08,0.01,0.08,0.03v0.03C6.12,10.98,5.99,11.06,5.73,11.06z"/>
		<path class="st1" d="M7.13,10.42H6.76c-0.04,0-0.06,0-0.08,0.02l-0.21,0.12c-0.02,0.01-0.02,0.02-0.02,0.04v0.44
			c0,0.02-0.01,0.03-0.08,0.03s-0.08-0.01-0.08-0.03v-0.45c0-0.05,0.01-0.07,0.04-0.09l0.25-0.14c0.05-0.03,0.08-0.04,0.16-0.04
			h0.39c0.04,0,0.06,0.01,0.06,0.05C7.19,10.41,7.17,10.42,7.13,10.42z"/>
		<path class="st1" d="M8.4,10.74H7.48v0.12c0,0.06,0.05,0.12,0.2,0.12h0.8c0.04,0,0.06,0.01,0.06,0.04c0,0.04-0.02,0.05-0.06,0.05
			H7.64c-0.2,0-0.33-0.06-0.33-0.19v-0.36c0-0.13,0.15-0.19,0.33-0.19h0.59c0.17,0,0.33,0.06,0.33,0.19v0.13
			C8.56,10.71,8.51,10.74,8.4,10.74z M8.39,10.53c0-0.07-0.07-0.11-0.19-0.11H7.68c-0.12,0-0.2,0.04-0.2,0.11v0.13h0.85
			c0.05,0,0.07-0.01,0.07-0.04V10.53z"/>
		<path class="st1" d="M9.81,11.06H9.04c-0.21,0-0.31-0.06-0.31-0.18v-0.09c0-0.12,0.1-0.19,0.32-0.19H9.8v-0.08
			c0-0.06-0.05-0.11-0.19-0.11H8.85c-0.04,0-0.06-0.01-0.06-0.05c0-0.04,0.02-0.05,0.06-0.05h0.81c0.2,0,0.31,0.06,0.31,0.18v0.46
			C9.97,11.04,9.92,11.06,9.81,11.06z M9.8,10.69H9.09c-0.13,0-0.2,0.03-0.2,0.12v0.06c0,0.07,0.03,0.11,0.19,0.11h0.65
			c0.05,0,0.07-0.01,0.07-0.04V10.69z"/>
		<path class="st1" d="M11.09,10.42h-0.54v0.43c0,0.09,0.07,0.12,0.21,0.12h0.26c0.04,0,0.06,0.01,0.06,0.05
			c0,0.04-0.01,0.05-0.05,0.05h-0.3c-0.23,0-0.34-0.07-0.34-0.19v-0.45h-0.23c-0.04,0-0.06-0.01-0.06-0.05
			c0-0.04,0.02-0.05,0.06-0.05h0.23v-0.14c0-0.02,0.02-0.03,0.09-0.03c0.07,0,0.08,0.01,0.08,0.03v0.14h0.54
			c0.04,0,0.06,0.01,0.06,0.05C11.15,10.42,11.13,10.42,11.09,10.42z"/>
		<path class="st1" d="M11.41,10.23c-0.07,0-0.08-0.01-0.08-0.03v-0.08c0-0.02,0.02-0.03,0.08-0.03c0.07,0,0.08,0.01,0.08,0.03v0.08
			C11.5,10.22,11.48,10.23,11.41,10.23z M11.41,11.06c-0.07,0-0.08-0.01-0.08-0.03v-0.65c0-0.02,0.02-0.03,0.08-0.03
			c0.07,0,0.08,0.01,0.08,0.03v0.65C11.5,11.05,11.48,11.06,11.41,11.06z"/>
		<path class="st1" d="M12.63,11.07h-0.51c-0.25,0-0.38-0.1-0.38-0.23v-0.29c0-0.13,0.14-0.22,0.38-0.22h0.52
			c0.23,0,0.38,0.09,0.38,0.22v0.29C13.01,10.97,12.87,11.07,12.63,11.07z M12.84,10.57c0-0.08-0.09-0.14-0.25-0.14h-0.45
			c-0.16,0-0.25,0.06-0.25,0.14v0.25c0,0.08,0.1,0.15,0.26,0.15h0.44c0.15,0,0.26-0.07,0.26-0.15V10.57z"/>
		<path class="st1" d="M14.29,11.07c-0.07,0-0.08-0.01-0.08-0.03v-0.46c0-0.09-0.1-0.14-0.25-0.14h-0.35
			c-0.14,0-0.25,0.06-0.25,0.14v0.46c0,0.02-0.02,0.03-0.08,0.03c-0.07,0-0.08-0.01-0.08-0.03v-0.48c0-0.14,0.14-0.22,0.38-0.22H14
			c0.24,0,0.37,0.09,0.37,0.22v0.48C14.37,11.05,14.35,11.07,14.29,11.07z"/>
	</g>
</g>
</svg>
