<?xml version="1.0" encoding="UTF-8"?><svg id="_レイヤー_1" xmlns="http://www.w3.org/2000/svg" viewBox="0 0 50 50"><defs><style>.cls-1{fill:#194592;}</style></defs><rect class="cls-1" x="14.46" y="8.67" width="21.07" height="3.66" rx="1.7" ry="1.7"/><rect class="cls-1" x="14.46" y="14.74" width="21.07" height="3.66" rx="1.7" ry="1.7"/><rect class="cls-1" x="14.46" y="20.81" width="21.07" height="3.66" rx="1.7" ry="1.7"/><path class="cls-1" d="M10,38.55v1.76c0,.48,0,.96-.49.96h-.41c-.49,0-.49-.48-.49-.96v-6.6c0-.48,0-.96.49-.96h1.77c.88,0,1.38,1.06,1.38,2.73,0,.67-.13,1.57-.25,1.94-.26.82-1.04.94-1.49.94-.2,0-.3-.02-.3-.02-.2,0-.2.1-.2.2ZM9.99,34.96c0,.16,0,.36,0,.61s0,.46,0,.6c0,.4.05.47.38.47.43,0,.45-.53.45-1.07s-.08-1.2-.45-1.2c-.33,0-.38.16-.38.59Z"/><path class="cls-1" d="M16.08,40.67c0,.55-.25.6-.72.6h-.43c-.51,0-.25-1.8-.58-1.8h-.65c-.33,0-.14,1.8-.63,1.8h-.38c-.42,0-.68-.05-.68-.6,0-.72.2-1.36.83-6.96.06-.6.23-.96.55-.96h1.26c.33,0,.49.36.57.96.55,4.92.86,6.24.86,6.96ZM13.71,37.48c0,.19.06.19.32.19s.32,0,.32-.18c0-.05,0-.11,0-.19-.1-1.18-.13-2.63-.31-2.63s-.23,1.44-.31,2.63c0,.07,0,.13,0,.18Z"/><path class="cls-1" d="M18.79,37.98c0-.37-.15-.38-.3-.38-.27,0-.3-.19-.3-.52v-.12c0-.97,0-1.03.39-1.03h1.17c.35,0,.35.25.35.48v3.74c0,1.17-.79,1.17-1.26,1.17-1.3,0-2.71-.86-2.71-4.4s1.5-4.23,2.51-4.23c.85,0,1.19.13,1.19.5v.95c0,.22-.11.29-.24.29-.25,0-.51-.16-.87-.16-1.04,0-1.16,2.12-1.16,2.61,0,.98.12,2.7.96,2.7.16,0,.28-.12.28-.54v-1.07Z"/><path class="cls-1" d="M21.75,39.07c.02.26.18.4.34.4.46,0,.62-.02.79-.02.34,0,.45.14.45.5v.84c0,.36-.08.48-.33.48h-2.16c-.49,0-.49-.72-.49-.96v-6.6c0-.48,0-.96.49-.96h2.11c.2,0,.38.12.38.36v1.02c0,.29-.16.3-.37.3-.32,0-.57-.02-.78-.02-.45,0-.45.24-.45.62,0,.78,0,.98.41.98.51,0,.59-.02.78-.02.29,0,.3.42.3.55v.77c0,.36-.17.38-.38.38-.42,0-.68-.02-.85-.02-.26,0-.26.17-.26.56v.84Z"/><path class="cls-1" d="M28.4,33.43c.18-.62.37-.67.66-.67h.44c.49,0,.49.48.49.96v6.6c0,.48,0,.96-.49.96h-.41c-.49,0-.49-.48-.49-.96v-3.3c0-.07-.02-.12-.04-.12s-.05.05-.07.12c-.58,1.69-.6,2.1-.87,2.1s-.29-.41-.87-2.1c-.02-.07-.06-.12-.07-.12-.02,0-.04.05-.04.12v3.3c0,.48,0,.96-.49.96h-.41c-.49,0-.49-.48-.49-.96v-6.6c0-.48,0-.96.49-.96h.43c.3,0,.49.06.67.67l.61,2.12c.06.22.11.34.16.34s.1-.12.16-.34l.61-2.12Z"/><path class="cls-1" d="M31.68,39.07c.02.26.18.4.34.4.46,0,.62-.02.79-.02.34,0,.45.14.45.5v.84c0,.36-.08.48-.33.48h-2.16c-.49,0-.49-.72-.49-.96v-6.6c0-.48,0-.96.49-.96h2.11c.2,0,.38.12.38.36v1.02c0,.29-.16.3-.37.3-.32,0-.57-.02-.78-.02-.45,0-.45.24-.45.62,0,.78,0,.98.41.98.51,0,.59-.02.78-.02.29,0,.3.42.3.55v.77c0,.36-.17.38-.38.38-.42,0-.68-.02-.85-.02-.26,0-.26.17-.26.56v.84Z"/><path class="cls-1" d="M36.08,36.59s.04-.04.04-.12v-2.76c0-.48,0-.96.49-.96h.41c.49,0,.49.48.49.96v6.6c0,.48,0,.96-.49.96-.73,0-.79-.19-.91-.55l-1.08-3.47c-.03-.07-.05-.12-.07-.12-.02,0-.03.05-.03.12v3.06c0,.48,0,.96-.48.96h-.41c-.49,0-.49-.48-.49-.96v-6.6c0-.48,0-.96.49-.96h.43c.27,0,.36.05.48.42l1.05,3.3c.02.08.05.12.07.12Z"/><path class="cls-1" d="M41.39,38.83c0,1.49-.11,2.49-1.75,2.49-1.72,0-1.84-1.02-1.84-2.58,0-3.79,0-5.04,0-5.04,0-.48,0-.96.49-.96h.41c.49,0,.49.48.49.96v5.28c0,.36,0,.66.45.66.37,0,.37-.3.37-.66v-5.29c0-.47,0-.95.49-.95h.41c.49,0,.49.48.49.95v5.13Z"/></svg>